# xmcd CD database file
#
# Track frame offsets:
#	150
#	43303
#	62558
#	84687
#	101658
#	134949
#	177567
#	220709
#
# Disc length: 3524 seconds
#
# Revision: 0
# Processed by: cddbd v1.4PL0 Copyright (c) Steve Scherf et al.
# Submitted via: Feurio! 1.65 - http://www.feurio.com
#
DISCID=7c0dc208
DTITLE=Mike Bloomfield - Fillmore West February 07 1969
DYEAR=1900
DGENRE=Blues
TTITLE0=Born in Chicago
TTITLE1=Work me Lord
TTITLE2=Killing my love
TTITLE3=Holy Moly
TTITLE4=Baby's been gone
TTITLE5=It's about time
TTITLE6=Schoolgirl
TTITLE7=Born in Chicago
EXTD=
EXTT0=
EXTT1=
EXTT2=
EXTT3=
EXTT4=
EXTT5=
EXTT6=
EXTT7=
PLAYORDER=
